<svg width="25" height="24" viewBox="0 0 25 24" fill="none" xmlns="http://www.w3.org/2000/svg">
<path d="M23.25 15V18C23.25 18.3978 23.092 18.7794 22.8107 19.0607C22.5294 19.342 22.1478 19.5 21.75 19.5H2.25C1.85218 19.5 1.47064 19.342 1.18934 19.0607C0.908035 18.7794 0.75 18.3978 0.75 18V15C1.54565 15 2.30871 14.6839 2.87132 14.1213C3.43393 13.5587 3.75 12.7956 3.75 12C3.75 11.2044 3.43393 10.4413 2.87132 9.87868C2.30871 9.31607 1.54565 9 0.75 9V6C0.75 5.60218 0.908035 5.22064 1.18934 4.93934C1.47064 4.65804 1.85218 4.5 2.25 4.5H21.75C22.1478 4.5 22.5294 4.65804 22.8107 4.93934C23.092 5.22064 23.25 5.60218 23.25 6V9C22.4544 9 21.6913 9.31607 21.1287 9.87868C20.5661 10.4413 20.25 11.2044 20.25 12C20.25 12.7956 20.5661 13.5587 21.1287 14.1213C21.6913 14.6839 22.4544 15 23.25 15Z" stroke="#FCB845" stroke-width="2" stroke-linecap="round" stroke-linejoin="round"/>
<path d="M8.25 10.5C9.07843 10.5 9.75 9.82843 9.75 9C9.75 8.17157 9.07843 7.5 8.25 7.5C7.42157 7.5 6.75 8.17157 6.75 9C6.75 9.82843 7.42157 10.5 8.25 10.5Z" stroke="#FCB845" stroke-width="2" stroke-linecap="round" stroke-linejoin="round"/>
<path d="M16.5 16.5C17.3284 16.5 18 15.8284 18 15C18 14.1716 17.3284 13.5 16.5 13.5C15.6716 13.5 15 14.1716 15 15C15 15.8284 15.6716 16.5 16.5 16.5Z" stroke="#FCB845" stroke-width="2" stroke-linecap="round" stroke-linejoin="round"/>
<path d="M15.75 8.25L8.25 15.75" stroke="#FCB845" stroke-width="2" stroke-linecap="round" stroke-linejoin="round"/>
</svg>
