<svg width="25" height="26" viewBox="0 0 25 26" fill="none" xmlns="http://www.w3.org/2000/svg">
<path d="M0.85498 15.251V24.251" stroke="#FCB845" stroke-width="2" stroke-linecap="round" stroke-linejoin="round"/>
<path d="M0.85498 22.751H15.855C15.855 21.9553 15.5389 21.1923 14.9763 20.6297C14.4137 20.067 13.6506 19.751 12.855 19.751H9.10498C9.10498 18.9553 8.78891 18.1923 8.2263 17.6297C7.66369 17.067 6.90063 16.751 6.10498 16.751H0.85498" stroke="#FCB845" stroke-width="2" stroke-linecap="round" stroke-linejoin="round"/>
<path d="M6.10498 19.751H9.10498" stroke="#FCB845" stroke-width="2" stroke-linecap="round" stroke-linejoin="round"/>
<path d="M15.104 13.001C16.3466 13.001 17.354 11.9936 17.354 10.751C17.354 9.50834 16.3466 8.50098 15.104 8.50098C13.8614 8.50098 12.854 9.50834 12.854 10.751C12.854 11.9936 13.8614 13.001 15.104 13.001Z" stroke="#FCB845" stroke-width="2" stroke-linecap="round" stroke-linejoin="round"/>
<path d="M16.925 17.5L17.084 16.387C17.786 16.1423 18.4359 15.7682 19 15.284L20.946 16.065C21.2811 16.1995 21.6535 16.2087 21.9948 16.0908C22.3361 15.9728 22.6234 15.7357 22.804 15.423L23.004 15.078C23.1845 14.7653 23.2462 14.3979 23.1777 14.0434C23.1092 13.6888 22.9151 13.3709 22.631 13.148L20.998 11.866C21.1473 11.1298 21.1473 10.3712 20.998 9.63498L22.631 8.35298C22.9144 8.1295 23.1077 7.81132 23.1755 7.45681C23.2433 7.10231 23.181 6.73525 23 6.42298L22.8 6.07798C22.6194 5.76524 22.3321 5.52814 21.9908 5.4102C21.6495 5.29226 21.2771 5.30142 20.942 5.43598L19 6.21698C18.4371 5.73438 17.789 5.3613 17.089 5.11698L16.789 3.04298C16.7387 2.68409 16.5603 2.35552 16.2865 2.11802C16.0128 1.88052 15.6624 1.75014 15.3 1.75098H14.9C14.5399 1.75213 14.1922 1.88279 13.9205 2.11908C13.6488 2.35537 13.4711 2.68153 13.42 3.03798L13.12 5.11198C12.4203 5.3563 11.7725 5.72939 11.21 6.21198L9.267 5.43598C8.93201 5.30169 8.55984 5.29269 8.21875 5.41061C7.87766 5.52853 7.59052 5.76547 7.41 6.07798L7.21 6.42298C7.02934 6.73559 6.96751 7.10287 7.03584 7.4574C7.10418 7.81193 7.29809 8.12991 7.582 8.35298L9.217 9.63498C9.06632 10.371 9.06632 11.1299 9.217 11.866L7.583 13.148" stroke="#FCB845" stroke-width="2" stroke-linecap="round" stroke-linejoin="round"/>
</svg>
