<svg width="25" height="26" viewBox="0 0 25 26" fill="none" xmlns="http://www.w3.org/2000/svg">
<path d="M0.75 15.25V24.25" stroke="#FCB845" stroke-width="2" stroke-linecap="round" stroke-linejoin="round"/>
<path d="M0.75 22.75H17.25C17.25 21.9544 16.9339 21.1913 16.3713 20.6287C15.8087 20.0661 15.0456 19.75 14.25 19.75H10.5C10.5 18.9544 10.1839 18.1913 9.62132 17.6287C9.05871 17.0661 8.29565 16.75 7.5 16.75H0.75" stroke="#FCB845" stroke-width="2" stroke-linecap="round" stroke-linejoin="round"/>
<path d="M6.75 19.75H10.5" stroke="#FCB845" stroke-width="2" stroke-linecap="round" stroke-linejoin="round"/>
<path d="M20.24 19.008C21.3299 18.1962 22.1778 17.1025 22.6926 15.8447C23.2074 14.587 23.3695 13.2127 23.1616 11.8696C22.9536 10.5266 22.3834 9.26566 21.5124 8.22246C20.6414 7.17926 19.5024 6.39326 18.218 5.94902L20.071 2.77902C20.1321 2.67485 20.1643 2.55628 20.1643 2.43552C20.1643 2.31476 20.1321 2.19619 20.071 2.09202C20.0076 1.98687 19.9179 1.90004 19.8108 1.84007C19.7037 1.7801 19.5828 1.74907 19.46 1.75002H12.04C11.9176 1.74942 11.7971 1.78061 11.6903 1.84057C11.5836 1.90052 11.4942 1.98716 11.431 2.09202C11.3699 2.19619 11.3377 2.31476 11.3377 2.43552C11.3377 2.55628 11.3699 2.67485 11.431 2.77902L13.284 5.94902C11.8167 6.45626 10.5438 7.40764 9.64171 8.67113C8.73965 9.93462 8.25325 11.4476 8.25 13" stroke="#FCB845" stroke-width="2" stroke-linecap="round" stroke-linejoin="round"/>
<path d="M13.7 14.844C13.9166 15.1284 14.1985 15.3565 14.522 15.5088C14.8454 15.6611 15.2008 15.7332 15.558 15.719C16.697 15.719 17.621 15.026 17.621 14.172C17.621 13.318 16.697 12.626 15.558 12.626C14.419 12.626 13.5 11.933 13.5 11.078C13.5 10.223 14.424 9.531 15.562 9.531C15.9193 9.51652 16.2747 9.58851 16.5982 9.74084C16.9217 9.89318 17.2036 10.1214 17.42 10.406" stroke="#FCB845" stroke-width="2" stroke-linecap="round" stroke-linejoin="round"/>
<path d="M15.562 15.719V16.75" stroke="#FCB845" stroke-width="2" stroke-linecap="round" stroke-linejoin="round"/>
<path d="M15.562 8.5V9.531" stroke="#FCB845" stroke-width="2" stroke-linecap="round" stroke-linejoin="round"/>
</svg>
