<svg width="24" height="26" viewBox="0 0 24 26" fill="none" xmlns="http://www.w3.org/2000/svg">
<path d="M15.4 12.2501C16.291 12.8981 19.5 16.1251 19.5 19.9341C19.5 23.0111 15.956 24.2501 12.676 24.2501C9.396 24.2501 6 23.0111 6 19.9341C6 15.9731 9.5 12.6001 10.32 12.1001" stroke="#FCB845" stroke-width="2" stroke-linecap="round" stroke-linejoin="round"/>
<path d="M4.5 4.75H6.3C6.57 4.75 6.75 4.964 6.75 5.286V11.714C6.75 12.036 6.57 12.25 6.3 12.25H4.5" stroke="#FCB845" stroke-width="2" stroke-linecap="round" stroke-linejoin="round"/>
<path d="M10.4 3.62109L9.155 5.37109C9.02979 5.52637 8.87266 5.6529 8.69425 5.7421C8.51585 5.8313 8.32034 5.88109 8.121 5.88809H6.75" stroke="#FCB845" stroke-width="2" stroke-linecap="round" stroke-linejoin="round"/>
<path d="M6.75 10.384C8.792 11.489 10.017 12.25 11.244 12.25H15.4C16.44 12.25 16.631 12.192 16.96 11.125C17.48 9.438 18 6.627 18 6.625C18 6.063 17.48 5.5 16.441 5.5L11.414 5.52L9.814 2.531C9.7726 2.45059 9.751 2.36145 9.751 2.271C9.751 2.18055 9.7726 2.09141 9.814 2.011C9.85039 1.93505 9.90694 1.87054 9.97747 1.82452C10.048 1.77849 10.1298 1.75272 10.214 1.75H16.032C16.117 1.75203 16.1998 1.77747 16.2712 1.82352C16.3427 1.86957 16.4 1.93445 16.437 2.011C16.4784 2.09124 16.5 2.18021 16.5 2.2705C16.5 2.36079 16.4784 2.44976 16.437 2.53L14.858 5.5" stroke="#FCB845" stroke-width="2" stroke-linecap="round" stroke-linejoin="round"/>
<path d="M11.079 20.0941C11.2956 20.3786 11.5775 20.6066 11.901 20.7589C12.2244 20.9112 12.5798 20.9833 12.937 20.9691C14.076 20.9691 15 20.2761 15 19.4221C15 18.5681 14.076 17.8761 12.937 17.8761C11.798 17.8761 10.875 17.1831 10.875 16.3281C10.875 15.4731 11.799 14.7811 12.937 14.7811C13.2943 14.7666 13.6497 14.8386 13.9732 14.991C14.2967 15.1433 14.5786 15.3715 14.795 15.6561" stroke="#FCB845" stroke-width="2" stroke-linecap="round" stroke-linejoin="round"/>
<path d="M12.937 20.969V22" stroke="#FCB845" stroke-width="2" stroke-linecap="round" stroke-linejoin="round"/>
<path d="M12.937 13.75V14.781" stroke="#FCB845" stroke-width="2" stroke-linecap="round" stroke-linejoin="round"/>
</svg>
